# xmcd CD database file
#
# Track frame offsets:
#	150
#	21895
#	36758
#	50009
#	60214
#	72308
#	93354
#	104685
#	112608
#	129247
#	139998
#	166665
#
# Disc length: 2454 seconds
#
# Revision: 0
# Processed by: cddbd v1.4PL0 Copyright (c) Steve Scherf et al.
# Submitted via: CDex 1.50
#
DISCID=9809940c
DTITLE=Chilli Willi and The Red Hot Peppers - Kings Of The Robot Rhythm
DYEAR=1972
DGENRE=Country
TTITLE0=Living Out My Suitcase
TTITLE1=The Ballad Of Chilli Willi
TTITLE2=Window Pane
TTITLE3=I'll Be Home
TTITLE4=Nashville Rag
TTITLE5=That's All Right Momma
TTITLE6=Drunken Sunken Red Neck Blues
TTITLE7=Get Your Gauge Up
TTITLE8=Happy You - Fiddle Dee
TTITLE9=Astrella From The Astral Plane
TTITLE10=Paper Mill
TTITLE11=A Page In History
EXTD=YEAR: 1972
EXTT0=
EXTT1=
EXTT2=
EXTT3=
EXTT4=
EXTT5=
EXTT6=
EXTT7=
EXTT8=
EXTT9=
EXTT10=
EXTT11=
PLAYORDER=
